HIERARCHY
ROOT Hips
{
	OFFSET 0.00000 0.00000 0.00000
	CHANNELS 6 Xposition Yposition Zposition Zrotation Yrotation Xrotation 
	JOINT LHipJoint
	{
		OFFSET 0 0 0
		CHANNELS 3 Zrotation Yrotation Xrotation
		JOINT LeftUpLeg
		{
			OFFSET 1.37959 -1.78713 0.86582
			CHANNELS 3 Zrotation Yrotation Xrotation
			JOINT LeftLeg
			{
				OFFSET 2.54611 -6.99539 0.00000
				CHANNELS 3 Zrotation Yrotation Xrotation
				JOINT LeftFoot
				{
					OFFSET 2.59951 -7.14211 0.00000
					CHANNELS 3 Zrotation Yrotation Xrotation
					JOINT LeftToeBase
					{
						OFFSET 0.18493 -0.50810 1.96120
						CHANNELS 3 Zrotation Yrotation Xrotation
						End Site
						{
							OFFSET 0.00000 -0.00000 1.02054
						}
					}
				}
			}
		}
	}
	JOINT RHipJoint
	{
		OFFSET 0 0 0
		CHANNELS 3 Zrotation Yrotation Xrotation
		JOINT RightUpLeg
		{
			OFFSET -1.33564 -1.78713 0.86582
			CHANNELS 3 Zrotation Yrotation Xrotation
			JOINT RightLeg
			{
				OFFSET -2.52705 -6.94302 0.00000
				CHANNELS 3 Zrotation Yrotation Xrotation
				JOINT RightFoot
				{
					OFFSET -2.55964 -7.03257 0.00000
					CHANNELS 3 Zrotation Yrotation Xrotation
					JOINT RightToeBase
					{
						OFFSET -0.25804 -0.70896 2.12109
						CHANNELS 3 Zrotation Yrotation Xrotation
						End Site
						{
							OFFSET -0.00000 -0.00000 1.11821
						}
					}
				}
			}
		}
	}
	JOINT LowerBack
	{
		OFFSET 0 0 0
		CHANNELS 3 Zrotation Yrotation Xrotation
		JOINT Spine
		{
			OFFSET -0.02031 2.24248 -0.18900
			CHANNELS 3 Zrotation Yrotation Xrotation
			JOINT Spine1
			{
				OFFSET 0.08342 2.24689 -0.03799
				CHANNELS 3 Zrotation Yrotation Xrotation
				JOINT Neck
				{
					OFFSET 0 0 0
					CHANNELS 3 Zrotation Yrotation Xrotation
					JOINT Neck1
					{
						OFFSET -0.11607 1.55844 0.24628
						CHANNELS 3 Zrotation Yrotation Xrotation
						JOINT Head
						{
							OFFSET 0.06877 1.60174 -0.17013
							CHANNELS 3 Zrotation Yrotation Xrotation
							End Site
							{
								OFFSET 0.03358 1.61266 -0.08543
							}
						}
					}
				}
				JOINT LeftShoulder
				{
					OFFSET 0 0 0
					CHANNELS 3 Zrotation Yrotation Xrotation
					JOINT LeftArm
					{
						OFFSET 3.47537 0.55866 -0.72348
						CHANNELS 3 Zrotation Yrotation Xrotation
						JOINT LeftForeArm
						{
							OFFSET 5.38154 -0.00000 0.00000
							CHANNELS 3 Zrotation Yrotation Xrotation
							JOINT LeftHand
							{
								OFFSET 3.33312 -0.00000 0.00000
								CHANNELS 3 Zrotation Yrotation Xrotation
								JOINT LeftFingerBase
								{
									OFFSET 0 0 0
									CHANNELS 3 Zrotation Yrotation Xrotation
									JOINT LeftHandIndex1
									{
										OFFSET 0.71079 -0.00000 0.00000
										CHANNELS 3 Zrotation Yrotation Xrotation
										End Site
										{
											OFFSET 0.57306 -0.00000 0.00000
										}
									}
								}
								JOINT LThumb
								{
									OFFSET 0 0 0
									CHANNELS 3 Zrotation Yrotation Xrotation
									End Site
									{
										OFFSET 0.58181 -0.00000 0.58181
									}
								}
							}
						}
					}
				}
				JOINT RightShoulder
				{
					OFFSET 0 0 0
					CHANNELS 3 Zrotation Yrotation Xrotation
					JOINT RightArm
					{
						OFFSET -3.27844 0.90739 -0.35708
						CHANNELS 3 Zrotation Yrotation Xrotation
						JOINT RightForeArm
						{
							OFFSET -5.16954 -0.00000 0.00000
							CHANNELS 3 Zrotation Yrotation Xrotation
							JOINT RightHand
							{
								OFFSET -3.38287 -0.00000 0.00000
								CHANNELS 3 Zrotation Yrotation Xrotation
								JOINT RightFingerBase
								{
									OFFSET 0 0 0
									CHANNELS 3 Zrotation Yrotation Xrotation
									JOINT RightHandIndex1
									{
										OFFSET -0.81797 -0.00000 0.00000
										CHANNELS 3 Zrotation Yrotation Xrotation
										End Site
										{
											OFFSET -0.65947 -0.00000 0.00000
										}
									}
								}
								JOINT RThumb
								{
									OFFSET 0 0 0
									CHANNELS 3 Zrotation Yrotation Xrotation
									End Site
									{
										OFFSET -0.66953 -0.00000 0.66953
									}
								}
							}
						}
					}
				}
			}
		}
	}
}
MOTION
Frames: 15
Frame Time: .0083333
3.7895 17.3716 -17.6866 0 0 0 0 0 0 -21 0 0 0 0 0 0 0 0 0 0 0 0 0 0 21 0 0 0 0 0 0 0 0 0 0 0 0 0 0 0 0 0 0 0 0 0 0 -16 0 0 21 0 0 11 0 0 0 -8 0 0 0 0 0 0 0 0 0 0 0 0 0 0 0 0 0 0 0 0 8 0 0 0 0 0 0 0 0 0 0 0 0 0 0 0 0 0
3.7895 17.3716 -17.6866 2.3493 -2.4841 -2.1520 0.0000 0.0000 0.0000 -24.5884 -3.9598 -11.4671 2.0119 8.8908 25.4543 0.0085 -11.4815 -8.1757 0.0001 -0.0773 -0.2123 0.0000 0.0000 0.0000 16.1503 2.3829 -11.8764 -11.2734 -18.0663 63.6661 0.2855 -9.4919 -2.2725 -0.3916 -4.0184 11.1284 -0.7681 1.5400 1.9794 0.6037 2.0413 0.9062 1.0036 1.0180 -0.2298 -11.5128 -3.1249 -18.0416 7.8264 -2.9558 21.4384 4.2945 -1.4036 10.1057 -0.0000 -0.0000 0.0000 -90.8295 2.6232 -2.5740 10.1437 -16.9641 -1.5166 -0.0000 -0.0000 20.3290 -0.8917 40.8668 -0.5835 -7.1250 0.0000 -0.0000 -47.0869 64.7346 -24.9952 -0.0000 -0.0000 0.0000 89.8814 11.4418 13.6622 -18.4364 28.7123 -4.7570 0.0000 -0.0000 -18.0157 -16.4261 16.8537 -4.8855 7.1250 -0.0000 -0.0000 7.5776 -12.5660 5.7996
3.7962 17.3551 -17.5224 2.3727 -2.0667 -2.1979 0.0000 0.0000 0.0000 -24.7603 -3.9390 -10.9882 2.0738 9.0182 25.8521 0.0397 -11.8117 -8.8346 0.0006 -0.1637 -0.4498 0.0000 0.0000 0.0000 15.9634 2.4235 -13.3610 -11.3389 -18.0970 63.8774 0.2232 -8.3761 -3.8591 -0.3997 -4.0590 11.2427 -0.8918 1.3398 2.1229 0.6682 1.7716 0.8637 1.1407 0.8836 -0.3531 -11.3088 -3.0323 -17.9951 7.7705 -2.8768 21.4221 4.2503 -1.3573 10.0774 -0.0000 0.0000 0.0000 -90.7388 1.5507 -1.6203 10.1186 -16.9250 -1.5093 -0.0000 -0.0000 19.5371 0.1195 39.9766 0.0768 -7.1250 0.0000 -0.0000 -44.7957 64.3993 -23.2019 -0.0000 0.0000 0.0000 90.0351 10.6148 13.1344 -18.0423 28.2113 -4.5692 0.0000 -0.0000 -17.4035 -16.5668 17.5501 -5.1259 7.1250 -0.0000 -0.0000 7.5062 -11.8379 5.8584
3.8039 17.3313 -17.3643 2.6272 -1.6563 -2.3572 0.0000 0.0000 0.0000 -25.2170 -4.1023 -10.2325 2.1170 9.1057 26.1264 0.0893 -11.8171 -9.4955 0.0052 -0.4674 -1.2842 0.0000 0.0000 0.0000 15.5362 2.4010 -14.7385 -11.3643 -18.1088 63.9592 0.1484 -7.3464 -5.6157 -0.3828 -3.9733 11.0015 -1.3089 1.1758 2.3224 0.7891 1.5432 0.8942 1.4999 0.7692 -0.4416 -11.7685 -3.0388 -17.9084 8.1025 -2.8457 21.4460 4.4541 -1.3447 10.0785 0.0000 0.0000 0.0000 -90.8187 0.6305 -0.2038 10.3013 -17.2095 -1.5629 -0.0000 -0.0000 18.3337 0.1345 38.2483 0.0833 -7.1250 0.0000 -0.0000 -42.3595 63.1519 -20.5004 0.0000 0.0000 0.0000 89.8850 9.8722 12.6337 -17.6982 27.7690 -4.4077 0.0000 -0.0000 -17.0020 -16.4914 17.9806 -5.2217 7.1250 -0.0000 -0.0000 7.5706 -11.4055 5.9778
3.8065 17.3125 -17.2037 2.7656 -1.1941 -2.4198 0.0000 0.0000 0.0000 -25.5064 -4.2504 -9.5941 2.1589 9.1895 26.3898 0.1326 -12.0094 -10.1553 0.0082 -0.5863 -1.6110 0.0000 0.0000 0.0000 15.2866 2.4859 -16.1460 -11.3603 -18.1069 63.9463 0.0612 -6.5121 -7.5006 -0.4118 -4.1195 11.4131 -1.5019 0.9832 2.3954 0.8211 1.2816 0.9434 1.6475 0.6377 -0.4275 -12.0908 -3.0459 -17.8456 8.3687 -2.8409 21.5666 4.6103 -1.3419 10.1181 -0.0000 -0.0000 0.0000 -90.8698 -0.6624 0.3358 10.4378 -17.4214 -1.6035 -0.0000 -0.0000 17.9625 -0.7137 38.4795 -0.4441 -7.1250 0.0000 -0.0000 -43.4788 63.0952 -21.0922 -0.0000 -0.0000 0.0000 89.8779 9.0815 12.3919 -17.4942 27.5047 -4.3131 0.0000 -0.0000 -16.9363 -17.3515 16.8226 -5.1670 7.1250 -0.0000 -0.0000 6.9618 -12.5004 5.3304
3.8073 17.2953 -17.0345 3.2051 -0.8013 -2.5035 0.0000 0.0000 0.0000 -26.1030 -4.3277 -8.9349 2.1981 9.2671 26.6346 0.1664 -12.2442 -10.6954 0.0008 -0.1818 -0.4995 0.0000 0.0000 0.0000 14.6908 2.6171 -17.4448 -11.3015 -18.0795 63.7569 -0.0448 -5.5987 -9.1958 -0.4017 -4.0690 11.2709 -1.8170 0.7947 2.6147 0.5614 1.0175 0.9158 1.5623 0.5071 -0.5687 -11.7274 -2.9378 -17.7893 8.3498 -2.7985 21.5812 4.5481 -1.2956 10.1002 0.0000 -0.0000 0.0000 -90.5012 -1.7963 1.2908 10.6445 -17.7413 -1.6660 -0.0000 -0.0000 17.1028 -1.5807 40.3517 -1.0237 -7.1250 0.0000 -0.0000 -46.9489 64.1865 -24.3275 0.0000 -0.0000 0.0000 90.1984 8.2607 12.3179 -17.1955 27.1148 -4.1761 0.0000 -0.0000 -16.9124 -17.2151 16.3432 -4.9828 7.1250 -0.0000 -0.0000 7.0370 -13.0085 5.3135
3.8161 17.2584 -16.8636 4.0358 -0.5090 -2.7456 0.0000 0.0000 0.0000 -27.1921 -4.3260 -8.0816 2.2323 9.3340 26.8458 0.2207 -12.2845 -11.3456 0.0001 0.0760 0.2087 0.0000 0.0000 0.0000 13.5577 2.5836 -18.6041 -11.1887 -18.0262 63.3930 -0.1494 -4.5843 -10.4229 -0.2887 -3.4555 9.5496 -2.9761 0.6187 2.4063 0.6407 0.7657 1.3433 2.3074 0.3663 -0.0187 -11.5828 -2.8727 -17.9811 7.9112 -2.5984 21.1462 4.3791 -1.2309 9.9515 -0.0000 -0.0000 0.0000 -90.6985 -2.9020 3.1853 11.2475 -18.6666 -1.8544 -0.0000 -0.0000 15.2630 -2.0475 41.2926 -1.3515 -7.1250 0.0000 -0.0000 -48.8167 64.6934 -26.0745 -0.0000 -0.0000 0.0000 89.7496 8.0725 12.3611 -16.8451 26.6532 -4.0176 0.0000 -0.0000 -16.8752 -16.8712 16.2298 -4.8450 7.1250 -0.0000 -0.0000 7.2634 -13.1605 5.4639
3.8203 17.2302 -16.6978 4.4357 -0.0431 -2.7235 0.0000 0.0000 0.0000 -27.7619 -4.3623 -7.5554 2.2663 9.4001 27.0550 0.2802 -12.5668 -12.1434 0.0000 -0.0078 -0.0215 0.0000 0.0000 0.0000 12.9441 2.5204 -20.0083 -10.9983 -17.9342 62.7760 -0.2233 -3.8870 -11.2247 -0.1900 -2.8072 7.7424 -3.4186 0.3273 2.6141 0.5942 0.3594 1.2532 2.5172 0.1657 -0.2039 -11.4719 -2.7649 -18.2849 7.7700 -2.4151 21.3213 4.3406 -1.1512 10.0471 -0.0000 0.0000 0.0000 -90.5491 -3.5147 4.3068 11.6981 -19.3504 -2.0011 -0.0000 -0.0000 13.9473 -0.7038 39.8799 -0.4512 -7.1250 0.0000 -0.0000 -45.4320 64.1016 -23.2911 -0.0000 0.0000 0.0000 89.8042 7.0832 12.2710 -16.6349 26.3740 -3.9238 0.0000 -0.0000 -16.5837 -16.1695 15.9355 -4.5516 7.1250 -0.0000 -0.0000 7.7257 -13.5320 5.7572
3.8167 17.2190 -16.5322 4.6154 0.5108 -2.5961 0.0000 0.0000 0.0000 -28.0139 -4.3486 -7.2058 2.3182 9.4997 27.3712 0.3318 -13.0262 -12.9053 0.0001 -0.0514 -0.1412 0.0000 0.0000 0.0000 12.6896 2.5131 -21.4106 -10.7327 -17.8018 61.9104 -0.2854 -3.3623 -11.9020 -0.0976 -2.0144 5.5456 -3.6256 0.0388 3.1378 0.5318 -0.0576 0.8268 2.5823 -0.0238 -0.9059 -11.4732 -2.6464 -18.4020 7.8665 -2.2769 21.7947 4.4101 -1.0827 10.2238 0.0000 -0.0000 0.0000 -90.2637 -4.0519 5.0808 11.8403 -19.5648 -2.0485 -0.0000 -0.0000 12.9351 0.8954 38.2274 0.5541 -7.1250 0.0000 -0.0000 -41.5998 63.3397 -20.2459 0.0000 -0.0000 0.0000 90.0542 5.5965 11.9577 -16.3951 26.0534 -3.8178 0.0000 -0.0000 -15.9978 -15.6398 15.8812 -4.3807 7.1250 -0.0000 -0.0000 8.0796 -13.6383 6.0079
3.8143 17.1949 -16.3659 4.7528 0.7480 -2.7604 0.0000 0.0000 0.0000 -28.2034 -4.0558 -6.6674 2.3866 9.6288 27.7827 0.3723 -13.4224 -13.4959 0.0006 0.1640 0.4507 0.0000 0.0000 0.0000 12.5380 2.7143 -22.3454 -10.3983 -17.6278 60.8116 -0.3431 -2.9281 -12.5348 -0.0577 -1.5504 4.2647 -3.9463 -0.0378 3.0221 0.6055 -0.1587 1.1411 2.8414 -0.0873 -0.5095 -11.5439 -2.6761 -18.6971 7.9439 -2.2800 21.7594 4.4506 -1.0753 10.2689 0.0000 -0.0000 0.0000 -90.0719 -5.5671 6.4354 11.9935 -19.7948 -2.1001 -0.0000 -0.0000 11.5996 0.3880 38.5978 0.2421 -7.1250 0.0000 -0.0000 -42.5871 63.4773 -20.9518 0.0000 -0.0000 0.0000 90.0005 5.0983 11.6296 -16.2268 25.8273 -3.7442 0.0000 -0.0000 -15.6108 -15.7884 15.5210 -4.3269 7.1250 -0.0000 -0.0000 7.9735 -13.9922 5.8672
3.8094 17.1669 -16.1990 4.4793 0.8804 -2.9374 0.0000 0.0000 0.0000 -27.9262 -3.8566 -6.0632 2.4399 9.7278 28.0996 0.4014 -13.7399 -13.9245 0.0021 0.2944 0.8089 0.0000 0.0000 0.0000 12.8908 3.0424 -23.1429 -9.9983 -17.4089 59.4827 -0.3784 -2.9071 -13.0542 -0.0842 -1.8712 5.1499 -3.5589 -0.0463 3.3617 0.5622 -0.1720 1.1564 2.5806 -0.0901 -0.6845 -11.3590 -2.7029 -18.7966 8.0612 -2.3946 21.8125 4.4485 -1.0979 10.3176 0.0000 -0.0000 0.0000 -89.5282 -6.7298 7.7328 12.1286 -19.9972 -2.1461 -0.0000 -0.0000 10.5629 -0.5279 39.2076 -0.3337 -7.1250 0.0000 -0.0000 -44.3039 63.6719 -22.1636 0.0000 -0.0000 0.0000 90.2294 4.0503 11.3737 -16.1911 25.7790 -3.7287 0.0000 -0.0000 -15.4595 -16.0613 15.2343 -4.3263 7.1250 -0.0000 -0.0000 7.7847 -14.2601 5.6809
3.7991 17.1482 -16.0303 4.1269 1.2022 -2.9204 0.0000 0.0000 0.0000 -27.5340 -3.8796 -5.4744 2.4616 9.7677 28.2278 0.4254 -14.0785 -14.3062 0.0052 0.4645 1.2763 0.0000 0.0000 0.0000 13.2719 3.3696 -23.9964 -9.5477 -17.1476 57.9658 -0.4361 -2.6632 -13.7337 -0.2298 -3.0856 8.5171 -3.6653 -0.1858 2.9187 0.9827 -0.3359 1.5721 3.0759 -0.1934 0.0058 -11.5336 -2.7935 -19.0498 7.8347 -2.3615 21.3393 4.3861 -1.1115 10.1927 0.0000 0.0000 0.0000 -89.8474 -8.8740 7.7971 12.1532 -20.0341 -2.1545 -0.0000 -0.0000 10.8404 -0.2722 38.7431 -0.1703 -7.1250 0.0000 -0.0000 -43.4166 63.4055 -21.3673 0.0000 0.0000 0.0000 89.7193 3.8234 11.3099 -15.9598 25.4661 -3.6286 0.0000 -0.0000 -15.2422 -15.7833 15.3426 -4.2771 7.1250 -0.0000 -0.0000 7.9740 -14.1750 5.8364
3.7933 17.1364 -15.8621 4.3790 1.7432 -2.8829 0.0000 0.0000 0.0000 -27.8289 -3.8290 -4.7671 2.4481 9.7430 28.1484 0.4495 -14.4663 -14.7055 0.0072 0.5478 1.5054 0.0000 0.0000 0.0000 12.8724 3.4620 -24.8331 -9.0680 -16.8513 56.3250 -0.5050 -2.1026 -14.3532 -0.4251 -4.1846 11.5965 -4.1167 -0.4603 2.8165 1.0260 -0.7067 1.7079 3.3829 -0.3896 0.2397 -11.4780 -2.7441 -19.1743 7.6728 -2.2481 21.1962 4.3300 -1.0691 10.1499 0.0000 0.0000 0.0000 -89.6950 -10.4703 7.9635 12.2390 -20.1621 -2.1840 -0.0000 -0.0000 10.6281 0.1093 38.3504 0.0678 -7.1250 0.0000 -0.0000 -42.5201 63.2205 -20.6604 0.0000 0.0000 0.0000 89.6096 3.2857 11.3290 -15.6738 25.0763 -3.5066 0.0000 -0.0000 -14.8159 -15.7353 15.2570 -4.2403 7.1250 -0.0000 -0.0000 8.0051 -14.2668 5.8438
3.7961 17.1327 -15.6951 5.0619 2.2922 -2.8489 0.0000 0.0000 0.0000 -28.6470 -3.6275 -3.9454 2.3869 9.6293 27.7843 0.4674 -14.6909 -14.9691 0.0000 -0.0258 -0.0709 0.0000 0.0000 0.0000 12.0379 3.2392 -25.8088 -8.5722 -16.5244 54.5987 -0.4996 -2.2023 -14.3347 -0.3395 -3.7441 10.3579 -4.8788 -0.7572 2.9979 0.8983 -1.1307 1.6451 3.6937 -0.6026 0.1256 -11.4990 -2.6013 -19.2533 7.7263 -2.0494 21.3100 4.3853 -0.9737 10.1837 0.0000 -0.0000 0.0000 -89.3829 -11.4793 8.4880 12.4569 -20.4862 -2.2596 -0.0000 -0.0000 9.6487 0.1474 38.2125 0.0912 -7.1250 0.0000 -0.0000 -42.2993 63.1288 -20.4430 0.0000 -0.0000 0.0000 89.5727 2.4972 11.2203 -15.3212 24.5916 -3.3585 0.0000 -0.0000 -14.2510 -16.0512 14.9503 -4.2450 7.1250 -0.0000 -0.0000 7.7869 -14.5518 5.6338
3.7940 17.1306 -15.5291 5.5225 2.6648 -2.5955 0.0000 0.0000 0.0000 -29.1608 -3.4011 -3.2558 2.2696 9.4065 27.0753 0.4391 -14.9166 -14.8223 0.0020 -0.2877 -0.7904 0.0000 0.0000 0.0000 11.5175 3.2671 -26.9264 -8.0468 -16.1536 52.7311 -0.4694 -2.5936 -14.1489 -0.1573 -2.5552 7.0428 -5.4385 -0.9784 2.9504 0.8073 -1.4403 1.5152 3.9227 -0.7561 0.0623 -11.4976 -2.5036 -19.0042 7.8280 -1.9606 21.0820 4.4265 -0.9207 10.0458 -0.0000 0.0000 0.0000 -89.3210 -12.3643 8.3975 12.8736 -21.1018 -2.4076 -0.0000 -0.0000 9.4384 0.0574 38.3073 0.0356 -7.1250 0.0000 -0.0000 -42.5122 63.1748 -20.6109 -0.0000 0.0000 0.0000 89.6025 1.6106 10.9416 -14.9888 24.1306 -3.2214 0.0000 -0.0000 -13.8258 -15.9953 14.4329 -4.0867 7.1250 -0.0000 -0.0000 7.8178 -15.0866 5.5664
